<?xml version="1.0" encoding="UTF-8" standalone="no"?>
<!-- Created with Inkscape (http://www.inkscape.org/) -->

<svg
   width="88.949287mm"
   height="65.875328mm"
   viewBox="0 0 88.949287 65.875328"
   version="1.1"
   id="svg1"
   xml:space="preserve"
   xmlns="http://www.w3.org/2000/svg"
   xmlns:svg="http://www.w3.org/2000/svg"><defs
     id="defs1" /><g
     id="layer1"
     transform="translate(-812.24286,-180.89756)"><g
       id="g24"><rect
         style="fill:#ffffff;stroke:none;stroke-width:0.0332557;stroke-linecap:square;stroke-linejoin:round;stroke-dasharray:none;stroke-opacity:1"
         id="rect11-5"
         width="88.949265"
         height="65.80751"
         x="812.24286"
         y="180.89757" /><g
         id="g23"
         transform="translate(13.336721,7.7439024)"><path
           id="path9"
           style="fill:#dcc082;fill-opacity:1;stroke:#dcc082;stroke-width:2.38;stroke-linecap:round;stroke-linejoin:round;stroke-dasharray:none;stroke-opacity:1"
           d="m 840.72838,178.15297 a 29.253223,28.414758 0 0 0 -29.25287,28.41502 29.253223,28.414758 0 0 0 29.25287,28.41449 29.253223,28.414758 0 0 0 29.25341,-28.41449 29.253223,28.414758 0 0 0 -29.25341,-28.41502 z m 0,3.97132 a 25.16504,24.443751 0 0 1 25.16508,24.4437 25.16504,24.443751 0 0 1 -25.16508,24.4437 25.16504,24.443751 0 0 1 -25.16503,-24.4437 25.16504,24.443751 0 0 1 25.16503,-24.4437 z" /><rect
           style="opacity:1;mix-blend-mode:normal;fill:#ffffff;fill-opacity:1;stroke:none;stroke-width:0.287074;stroke-linecap:round;stroke-linejoin:round;stroke-dasharray:none;stroke-opacity:1"
           id="rect23"
           width="87.953369"
           height="21.080574"
           x="799.60175"
           y="217.94841" /><text
           xml:space="preserve"
           style="font-style:normal;font-variant:normal;font-weight:normal;font-stretch:normal;font-size:4.58611px;line-height:0.9;font-family:Georgia;-inkscape-font-specification:Georgia;text-align:center;writing-mode:lr-tb;direction:ltr;text-anchor:middle;fill:#333333;fill-opacity:1;stroke:none;stroke-width:0.281001;stroke-linecap:round;stroke-linejoin:round"
           x="841.97021"
           y="223.98199"
           id="text9-5"><tspan
             id="tspan9-66"
             x="841.97021"
             y="223.98199"
             style="font-style:normal;font-variant:normal;font-weight:normal;font-stretch:normal;font-size:4.58611px;font-family:Georgia;-inkscape-font-specification:Georgia;fill:#333333;fill-opacity:1;stroke:none;stroke-width:0.281">Learning Outbreak Trends in Real-time</tspan></text><rect
           style="fill:#333333;fill-opacity:1;stroke:none;stroke-width:0.0625219;stroke-linecap:round;stroke-linejoin:round"
           id="rect9"
           width="79.933975"
           height="0.93163246"
           x="802.06598"
           y="218.07259" /><text
           xml:space="preserve"
           style="font-style:normal;font-variant:normal;font-weight:normal;font-stretch:normal;font-size:25.4px;line-height:0.9;font-family:Georgia;-inkscape-font-specification:Georgia;text-align:center;writing-mode:lr-tb;direction:ltr;text-anchor:middle;fill:#333333;fill-opacity:1;stroke:none;stroke-width:0.485;stroke-linecap:round;stroke-linejoin:round;stroke-dasharray:none;stroke-opacity:1"
           x="841.68774"
           y="213.29797"
           id="text9-6"><tspan
             id="tspan9-68"
             x="841.68774"
             y="213.29797"
             style="font-style:normal;font-variant:normal;font-weight:normal;font-stretch:normal;font-size:25.4px;font-family:Georgia;-inkscape-font-specification:Georgia;fill:#333333;fill-opacity:1;stroke:none;stroke-width:0.485;stroke-dasharray:none;stroke-opacity:1">LO   R</tspan></text><path
           d="m 842.66976,195.27733 v 4.83169 h 0.8784 c 0.075,-0.27609 0.2092,-0.62338 0.4016,-1.04171 0.1924,-0.4267 0.4142,-0.8283 0.6652,-1.20479 0.251,-0.3765 0.5229,-0.71116 0.8157,-1.00399 0.3012,-0.3012 0.5899,-0.46853 0.866,-0.502 0.3514,-0.0418 0.7195,-0.0668 1.1044,-0.0752 0.263,-0.0114 0.4967,-0.019 0.7012,-0.0226 v -0.002 h 0.1545 c 0.038,-2.4e-4 0.075,-4.8e-4 0.1105,-4.8e-4 h 0.7279 v 4.8e-4 h 2.6732 v -4.8e-4 h 0.7278 c 0.046,0 0.093,1.8e-4 0.1398,4.8e-4 h 0.3198 v 0.004 c 0.2016,0.004 0.4124,0.0109 0.6323,0.0203 0.3932,0.0167 0.7195,0.0417 0.9789,0.0752 0.2761,0.0418 0.5605,0.20917 0.8533,0.502 0.3012,0.28446 0.5773,0.61913 0.8283,1.00399 0.2426,0.36813 0.4602,0.76139 0.6527,1.17972 0.2008,0.40996 0.3388,0.76559 0.4141,1.06679 h 0.866 v -4.83169 z"
           style="font-size:108.082px;line-height:0.9;font-family:Georgia;-inkscape-font-specification:Georgia;text-align:center;text-anchor:middle;fill:#333333;stroke:#ffffff;stroke-width:0.288639;stroke-linecap:round;stroke-linejoin:round;stroke-dasharray:none;stroke-opacity:1"
           id="path12" /><g
           id="g22"
           transform="matrix(0.0614004,0,0,0.0614004,780.48696,189.72562)"
           style="fill:#333333;fill-opacity:1;stroke:#333333;stroke-width:4.25079;stroke-dasharray:none;stroke-opacity:1"><path
             style="fill:#333333;fill-opacity:1;stroke:#333333;stroke-width:4.25079;stroke-dasharray:none;stroke-opacity:1"
             d="m 1116.2509,250.65324 c -1.261,-0.69486 -1.4218,-1.29567 -1.4218,-5.31361 0,-5.43238 0.7993,-9.378 2.8434,-14.03641 1.9663,-4.48117 5.8021,-9.81802 9.7718,-13.59586 2.0757,-1.97543 2.2262,-2.06748 3.3797,-2.06748 1.041,0 1.28,0.10704 1.7353,0.77723 0.6686,0.9841 0.9041,2.50848 0.5532,3.58091 -0.1626,0.49717 -1.1177,1.63338 -2.4217,2.88086 -3.8962,3.72751 -7.2875,8.52689 -8.9507,12.66697 -1.2303,3.06257 -1.5851,4.93668 -1.7617,9.30403 -0.095,2.34862 -0.2851,4.37296 -0.4463,4.75112 -0.2885,0.67693 -1.4825,1.46635 -2.1882,1.44672 -0.2184,-0.006 -0.7103,-0.18359 -1.093,-0.39448 z m 46.5025,-0.0888 c -1.032,-0.65272 -1.3083,-1.75379 -1.3279,-5.29123 -0.01,-1.55222 -0.076,-3.10797 -0.15,-3.45722 l -0.1345,-0.635 h -15.6997 c -17.2944,0 -16.6306,0.0667 -17.3701,-1.74404 -0.4953,-1.21254 -0.2942,-2.92439 0.4548,-3.87291 l 0.5789,-0.73305 15.0631,-0.0764 c 13.2782,-0.0673 15.0479,-0.12651 14.9348,-0.49951 -0.3884,-1.2816 -2.2668,-4.28465 -4.2427,-6.78305 -4.0494,-5.12004 -7.8205,-8.27305 -15.986,-13.36615 -9.4333,-5.88383 -15.0465,-11.13689 -18.9924,-17.7741 -3.3014,-5.5532 -4.7829,-10.42271 -4.9901,-16.40194 -0.2305,-6.65082 1.2215,-12.10532 4.8949,-18.38753 2.1325,-3.64702 6.703,-9.01401 9.543,-11.20609 1.3992,-1.07996 2.9771,-0.55972 3.6362,1.19886 0.7662,2.04443 0.3511,3.15802 -2.0183,5.41361 -2.4473,2.32977 -5.6955,6.36022 -7.2693,9.02005 -1.6157,2.73063 -2.6715,5.45352 -3.2729,8.44126 -0.5727,2.84524 -0.5688,5.23794 0.014,8.37922 l 0.463,2.49701 15.5303,0.0779 c 14.4106,0.0723 15.5721,0.11382 16.109,0.57577 1.4527,1.24992 1.4471,4.03548 -0.011,5.4904 -0.2624,0.26188 -3.7306,0.34594 -14.5546,0.35278 -7.8156,0.005 -14.2101,0.11182 -14.2101,0.23751 0,0.35641 1.9084,3.16663 3.0729,4.52498 3.7864,4.41675 7.3093,7.26866 15.2817,12.37111 11.0166,7.05074 16.5315,12.44638 20.5104,20.06696 2.7945,5.35216 3.7124,8.99475 3.8734,15.37045 0.1265,5.00743 0,5.56254 -1.4,6.30487 -0.9828,0.51993 -1.3846,0.50362 -2.3303,-0.0946 z m -13.8758,-42.9905 c -0.5101,-0.37618 -1.0588,-1.7397 -1.0588,-2.63121 0,-1.34179 0.5411,-2.19491 2.6627,-4.19861 4.1341,-3.90424 7.7519,-9.13076 9.3919,-13.56823 0.8779,-2.37552 1.5425,-5.83254 1.5425,-8.02344 0,-1.0037 -0.2083,-2.94857 -0.463,-4.32193 l -0.463,-2.49701 -15.5303,-0.0779 c -14.4105,-0.0723 -15.572,-0.11382 -16.1089,-0.57577 -1.0837,-0.93234 -1.4184,-2.95142 -0.7329,-4.4207 0.7608,-1.63062 0.1323,-1.56078 15.4217,-1.71368 l 14.1102,-0.14111 -1.0226,-1.55222 c -3.3756,-5.12379 -8.0054,-9.1651 -17.3552,-15.14907 -8.8796,-5.68309 -13.0962,-9.32276 -17.2737,-14.91036 -2.0703,-2.76927 -4.3615,-7.0023 -5.3457,-9.87637 -1.3245,-3.86785 -1.6444,-5.8223 -1.7645,-10.78249 l -0.1108,-4.57495 0.6611,-0.83707 c 0.8862,-1.12202 2.0173,-1.37478 3.1148,-0.69602 1.1041,0.68292 1.3733,1.71084 1.3933,5.32078 0.01,1.55222 0.076,3.10797 0.15,3.45722 l 0.1344,0.635 h 15.6998 c 17.2943,0 16.6305,-0.0666 17.3701,1.74404 0.4952,1.21254 0.2942,2.92439 -0.4549,3.87291 l -0.5789,0.73305 -15.063,0.0764 c -13.2783,0.0673 -15.0479,0.12651 -14.9349,0.4995 0.3884,1.28161 2.2668,4.28466 4.2428,6.78305 4.0494,5.12005 7.8204,8.27306 15.986,13.36616 5.132,3.201 8.3721,5.6188 11.6594,8.70032 5.7092,5.35179 9.9579,12.44449 11.6311,19.41643 0.5451,2.27107 0.6073,2.97286 0.6242,7.03816 0.016,3.904 -0.05,4.82134 -0.491,6.77334 -1.6942,7.50356 -6.7098,15.49121 -13.2686,21.13081 -1.2184,1.04766 -1.7032,1.30415 -2.4519,1.29727 -0.5133,-0.005 -1.1088,-0.13803 -1.3234,-0.29625 z m 0.2257,-65.6027 c -0.701,-0.49289 -1.2845,-1.75845 -1.2845,-2.78628 0,-1.31851 0.5137,-2.14063 2.432,-3.89206 2.3419,-2.13822 6.52,-7.3656 7.7825,-9.73708 1.1866,-2.22889 2.3424,-5.15627 2.8197,-7.14149 0.2227,-0.9264 0.4402,-3.21918 0.5393,-5.6868 0.1894,-4.71513 0.3895,-5.37998 1.7774,-5.90647 1.0956,-0.41559 2.2741,0.0247 2.9468,1.10093 0.4477,0.71625 0.4669,0.99129 0.3682,5.27123 -0.1245,5.39849 -0.6448,8.02736 -2.4267,12.26047 -2.329,5.53283 -6.5105,11.22423 -11.2487,15.31039 -1.7431,1.50327 -2.7967,1.84645 -3.706,1.20716 z"
             id="path10" /><path
             style="fill:#333333;fill-opacity:1;stroke:#333333;stroke-width:4.25079;stroke-dasharray:none;stroke-opacity:1"
             d="m 1116.1409,385.00705 c -1.261,-0.69486 -1.4219,-1.29567 -1.4219,-5.31361 0,-5.43238 0.7993,-9.378 2.8434,-14.03641 1.9663,-4.48117 5.8022,-9.81802 9.7718,-13.59586 2.0757,-1.97543 2.2262,-2.06748 3.3797,-2.06748 1.041,0 1.28,0.10704 1.7353,0.77723 0.6686,0.9841 0.9041,2.50848 0.5532,3.58091 -0.1626,0.49717 -1.1177,1.63338 -2.4217,2.88086 -3.8962,3.72751 -7.2875,8.52689 -8.9507,12.66697 -1.2303,3.06257 -1.5851,4.93668 -1.7617,9.30403 -0.095,2.34862 -0.2851,4.37296 -0.4463,4.75112 -0.2885,0.67693 -1.4825,1.46635 -2.1882,1.44672 -0.2184,-0.006 -0.7103,-0.18359 -1.0929,-0.39448 z m 46.5025,-0.0888 c -1.032,-0.65272 -1.3083,-1.75379 -1.3279,-5.29123 -0.01,-1.55222 -0.076,-3.10797 -0.1501,-3.45722 l -0.1344,-0.635 h -15.6997 c -17.2944,0 -16.6306,0.0667 -17.3701,-1.74404 -0.4953,-1.21254 -0.2942,-2.92439 0.4548,-3.87291 l 0.5789,-0.73305 15.0631,-0.0764 c 13.2782,-0.0673 15.0479,-0.12651 14.9348,-0.49951 -0.3884,-1.2816 -2.2668,-4.28465 -4.2427,-6.78305 -4.0494,-5.12004 -7.8205,-8.27305 -15.986,-13.36615 -9.4333,-5.88383 -15.0465,-11.13689 -18.9925,-17.7741 -3.3014,-5.5532 -4.7829,-10.42271 -4.9901,-16.40194 -0.2304,-6.65082 1.2216,-12.10532 4.8949,-18.38753 2.1325,-3.64702 6.703,-9.01401 9.543,-11.20609 1.3992,-1.07996 2.9771,-0.55972 3.6362,1.19886 0.7662,2.04443 0.3511,3.15802 -2.0183,5.41361 -2.4473,2.32977 -5.6955,6.36022 -7.2693,9.02005 -1.6157,2.73063 -2.6715,5.45352 -3.2729,8.44126 -0.5727,2.84524 -0.5688,5.23794 0.014,8.37922 l 0.463,2.49701 15.5303,0.0779 c 14.4106,0.0723 15.5721,0.11382 16.109,0.57577 1.4527,1.24992 1.4471,4.03548 -0.011,5.4904 -0.2624,0.26188 -3.7306,0.34594 -14.5546,0.35278 -7.8156,0.005 -14.2101,0.11182 -14.2101,0.23751 0,0.35641 1.9084,3.16663 3.0729,4.52498 3.7864,4.41675 7.3093,7.26866 15.2817,12.37111 11.0166,7.05074 16.5315,12.44638 20.5104,20.06696 2.7945,5.35216 3.7124,8.99475 3.8734,15.37045 0.1265,5.00743 0,5.56254 -1.4,6.30487 -0.9828,0.51993 -1.3846,0.50362 -2.3303,-0.0946 z m -13.8758,-42.9905 c -0.5101,-0.37618 -1.0588,-1.7397 -1.0588,-2.63121 0,-1.34179 0.541,-2.19491 2.6627,-4.19861 4.1341,-3.90424 7.7519,-9.13076 9.3919,-13.56823 0.8779,-2.37552 1.5425,-5.83254 1.5425,-8.02344 0,-1.0037 -0.2083,-2.94857 -0.463,-4.32193 l -0.463,-2.49701 -15.5303,-0.0779 c -14.4105,-0.0723 -15.572,-0.11382 -16.1089,-0.57577 -1.0837,-0.93234 -1.4184,-2.95142 -0.7329,-4.4207 0.7608,-1.63062 0.1323,-1.56078 15.4217,-1.71368 l 14.1102,-0.14111 -1.0226,-1.55222 c -3.3756,-5.12379 -8.0054,-9.1651 -17.3552,-15.14907 -8.8796,-5.68309 -13.0962,-9.32276 -17.2737,-14.91036 -2.0703,-2.76927 -4.3615,-7.0023 -5.3457,-9.87637 -1.3245,-3.86785 -1.6444,-5.8223 -1.7645,-10.78249 l -0.1108,-4.57495 0.6611,-0.83707 c 0.8862,-1.12202 2.0173,-1.37478 3.1148,-0.69602 1.1041,0.68292 1.3733,1.71084 1.3933,5.32078 0.01,1.55222 0.076,3.10797 0.15,3.45722 l 0.1344,0.635 h 15.6998 c 17.2943,0 16.6305,-0.0666 17.3701,1.74404 0.4952,1.21254 0.2942,2.92439 -0.4549,3.87291 l -0.5789,0.73305 -15.063,0.0764 c -13.2783,0.0673 -15.0479,0.12651 -14.9349,0.4995 0.3884,1.28161 2.2668,4.28466 4.2428,6.78305 4.0494,5.12005 7.8204,8.27306 15.986,13.36616 5.132,3.201 8.3721,5.6188 11.6594,8.70032 5.7092,5.35179 9.9579,12.44449 11.6311,19.41643 0.5451,2.27107 0.6073,2.97286 0.6242,7.03816 0.016,3.904 -0.05,4.82134 -0.491,6.77334 -1.6942,7.50356 -6.7098,15.49121 -13.2686,21.13081 -1.2184,1.04766 -1.7032,1.30415 -2.4519,1.29727 -0.5133,-0.005 -1.1088,-0.13803 -1.3234,-0.29625 z m 0.2257,-65.6027 c -0.7011,-0.49289 -1.2845,-1.75845 -1.2845,-2.78628 0,-1.31851 0.5136,-2.14063 2.432,-3.89206 2.3418,-2.13822 6.52,-7.3656 7.7825,-9.73708 1.1866,-2.22889 2.3424,-5.15627 2.8197,-7.14149 0.2227,-0.9264 0.4402,-3.21918 0.5392,-5.6868 0.1894,-4.71513 0.3895,-5.37998 1.7774,-5.90647 1.0957,-0.41559 2.2742,0.0247 2.9468,1.10093 0.4477,0.71625 0.4669,0.99129 0.3682,5.27123 -0.1245,5.39849 -0.6448,8.02736 -2.4267,12.26047 -2.329,5.53283 -6.5105,11.22423 -11.2487,15.31039 -1.7431,1.50327 -2.7967,1.84645 -3.7059,1.20716 z"
             id="path10-5" /></g></g></g></g></svg>
